<svg width="128" height="128" viewBox="0 0 128 128" fill="none" xmlns="http://www.w3.org/2000/svg">
<path d="M90.007 16.411L93.957 9.57L103.284 14.955L99.334 21.796L90.007 16.411ZM88.998 21.501L91.423 17.301L97.485 20.801L95.06 25.001L88.998 21.501ZM54.03 0H73.97V7.98H54.03V0ZM58 8H70V19H58V8Z" fill="white"/>
<path d="M64 127.05C95.4802 127.05 121 101.53 121 70.0501C121 38.5698 95.4802 13.05 64 13.05C32.5198 13.05 7 38.5698 7 70.0501C7 101.53 32.5198 127.05 64 127.05Z" fill="#19699D"/>
<path d="M64 114.85C39.2999 114.85 19.2 94.76 19.2 70.05C19.2 45.35 39.29 25.26 64 25.26C88.7 25.26 108.79 45.36 108.79 70.05C108.8 94.76 88.7 114.85 64 114.85Z" fill="white"/>
<path d="M63.9999 20.48C36.6599 20.48 14.4199 42.73 14.4199 70.06C14.4199 97.4 36.6599 119.64 63.9999 119.64C91.3399 119.64 113.58 97.4 113.58 70.06C113.58 42.72 91.3399 20.48 63.9999 20.48ZM63.9999 114.85C39.2999 114.85 19.1999 94.76 19.1999 70.05C19.1999 45.35 39.2899 25.26 63.9999 25.26C88.6999 25.26 108.79 45.36 108.79 70.05C108.8 94.76 88.6999 114.85 63.9999 114.85Z" fill="#BEE8F1"/>
<path d="M68.6301 64.0799V43.5399H67.5701V31.9799C67.5701 30.4399 66.3201 29.1899 64.7801 29.1899H63.2101C61.6701 29.1899 60.4201 30.4399 60.4201 31.9799V43.5399H59.3601V64.0799C57.1901 65.7599 55.9301 68.5599 56.5701 71.6399C57.1801 74.5799 59.5501 76.9399 62.5001 77.4999C67.3401 78.4199 71.5801 74.7399 71.5801 70.0499C71.5901 67.6099 70.4201 65.4699 68.6301 64.0799ZM61.6201 71.6399C61.5701 71.5599 61.5301 71.4699 61.4901 71.3899C61.2701 70.9899 61.1401 70.5399 61.1401 70.0499C61.1401 69.5699 61.2701 69.1099 61.4901 68.7099C61.9701 67.8099 62.9101 67.1899 64.0001 67.1899C65.0901 67.1899 66.0301 67.8199 66.5101 68.7199C66.7201 69.1199 66.8601 69.5699 66.8601 70.0499C66.8601 70.5399 66.7301 70.9899 66.5101 71.3899C66.4701 71.4799 66.4301 71.5699 66.3801 71.6399C66.0701 72.0999 65.6401 72.4599 65.1301 72.6799C65.1201 72.6899 65.1001 72.6899 65.0901 72.6999C64.7601 72.8299 64.3901 72.9099 64.0101 72.9099C63.6201 72.9099 63.2601 72.8299 62.9301 72.6999C62.9201 72.6899 62.9001 72.6899 62.8901 72.6799C62.3601 72.4599 61.9301 72.0999 61.6201 71.6399Z" fill="#2F2F2F"/>
<path d="M102.74 72.92C104.319 72.92 105.6 71.6395 105.6 70.06C105.6 68.4804 104.319 67.2 102.74 67.2C101.16 67.2 99.8799 68.4804 99.8799 70.06C99.8799 71.6395 101.16 72.92 102.74 72.92Z" fill="#2F2F2F"/>
<path d="M98.9799 53.16C99.636 52.7792 100.115 52.1542 100.311 51.4216C100.508 50.689 100.407 49.9082 100.03 49.25C99.6494 48.5964 99.0262 48.1195 98.2959 47.9229C97.5656 47.7263 96.7872 47.8259 96.1299 48.2C95.4739 48.5808 94.9952 49.2058 94.7984 49.9384C94.6017 50.671 94.7029 51.4518 95.0799 52.11C95.2665 52.4356 95.5155 52.7212 95.8128 52.9503C96.11 53.1794 96.4495 53.3475 96.8118 53.4451C97.1742 53.5427 97.5523 53.5677 97.9243 53.5188C98.2964 53.4698 98.6551 53.3479 98.9799 53.16ZM84.7999 34.03C84.4752 33.8418 84.1164 33.7197 83.7443 33.6706C83.3722 33.6216 82.9941 33.6465 82.6316 33.7441C82.2692 33.8417 81.9296 34.0099 81.6324 34.2392C81.3353 34.4685 81.0863 34.7542 80.8999 35.08C80.7124 35.4049 80.5908 35.7636 80.5421 36.1356C80.4934 36.5076 80.5185 36.8855 80.6161 37.2478C80.7136 37.61 80.8816 37.9495 81.1105 38.2467C81.3394 38.544 81.6246 38.7931 81.9499 38.98C83.3199 39.77 85.0699 39.3 85.8499 37.93C86.0379 37.6052 86.1598 37.2464 86.2087 36.8744C86.2576 36.5023 86.2326 36.1243 86.135 35.7619C86.0375 35.3995 85.8693 35.06 85.6402 34.7628C85.4111 34.4656 85.1255 34.2166 84.7999 34.03ZM43.1999 34.02C42.5448 34.3991 42.0664 35.0223 41.8697 35.7532C41.6729 36.4841 41.7737 37.2632 42.1499 37.92C42.3365 38.2456 42.5855 38.5312 42.8828 38.7603C43.18 38.9894 43.5195 39.1575 43.8818 39.2551C44.2442 39.3527 44.6223 39.3777 44.9943 39.3288C45.3664 39.2798 45.7251 39.1579 46.0499 38.97C46.375 38.7829 46.6599 38.5334 46.8882 38.2358C47.1166 37.9383 47.2839 37.5986 47.3805 37.2362C47.4772 36.8738 47.5012 36.4958 47.4514 36.1241C47.4015 35.7524 47.2787 35.3941 47.0899 35.07C46.7124 34.4159 46.091 33.9381 45.3619 33.7413C44.6327 33.5445 43.8553 33.6447 43.1999 34.02Z" fill="#2F2F2F"/>
<path d="M32.9247 52.1076C33.7143 50.7396 33.2454 48.9905 31.8774 48.2009C30.5094 47.4113 28.7603 47.8802 27.9707 49.2482C27.1811 50.6162 27.65 52.3653 29.018 53.1549C30.386 53.9445 32.1351 53.4756 32.9247 52.1076Z" fill="#2F2F2F"/>
<path d="M25.2599 72.9099C26.8394 72.9099 28.1199 71.6295 28.1199 70.0499C28.1199 68.4704 26.8394 67.1899 25.2599 67.1899C23.6804 67.1899 22.3999 68.4704 22.3999 70.0499C22.3999 71.6295 23.6804 72.9099 25.2599 72.9099Z" fill="#2F2F2F"/>
<path d="M29.0201 86.95C28.3665 87.3306 27.8895 87.9537 27.6929 88.684C27.4963 89.4143 27.5959 90.1927 27.9701 90.85C28.1569 91.1753 28.4061 91.4606 28.7033 91.6894C29.0006 91.9183 29.34 92.0863 29.7023 92.1839C30.0645 92.2814 30.4425 92.3065 30.8144 92.2578C31.1864 92.2091 31.5451 92.0875 31.8701 91.9C32.1959 91.7136 32.4816 91.4647 32.7109 91.1675C32.9401 90.8703 33.1084 90.5307 33.206 90.1683C33.3035 89.8059 33.3285 89.4277 33.2794 89.0556C33.2304 88.6835 33.1082 88.3247 32.9201 88C32.5414 87.3444 31.9182 86.8657 31.1871 86.6689C30.456 86.4721 29.6767 86.5732 29.0201 86.95Z" fill="#2F2F2F"/>
<path d="M47.1091 105.037C47.8987 103.669 47.4298 101.92 46.0617 101.131C44.6937 100.341 42.9446 100.81 42.155 102.178C41.3654 103.546 41.8343 105.295 43.2023 106.085C44.5704 106.874 46.3195 106.405 47.1091 105.037Z" fill="#2F2F2F"/>
<path d="M63.9999 111.66C65.5794 111.66 66.8599 110.379 66.8599 108.8C66.8599 107.22 65.5794 105.94 63.9999 105.94C62.4204 105.94 61.1399 107.22 61.1399 108.8C61.1399 110.379 62.4204 111.66 63.9999 111.66Z" fill="#2F2F2F"/>
<path d="M84.8031 106.086C86.1711 105.297 86.6401 103.548 85.8505 102.179C85.061 100.811 83.3119 100.342 81.9439 101.132C80.5758 101.922 80.1069 103.671 80.8964 105.039C81.686 106.407 83.435 106.876 84.8031 106.086Z" fill="#2F2F2F"/>
<path d="M100.026 90.8566C100.814 89.4939 100.343 87.7484 98.9759 86.958C97.6083 86.1676 95.8612 86.6316 95.0736 87.9944C94.286 89.3572 94.7561 91.1027 96.1236 91.893C97.4912 92.6834 99.2383 92.2194 100.026 90.8566Z" fill="#2F2F2F"/>
</svg>
